<svg width="12" height="13" viewBox="0 0 12 13" fill="none" xmlns="http://www.w3.org/2000/svg">
<path d="M6 0.777771C9.31264 0.777771 12 3.46588 12 6.77432C12 10.0897 9.31264 12.7778 6 12.7778C2.68736 12.7778 0 10.0897 0 6.77432C0 3.46588 2.68736 0.777771 6 0.777771Z" fill="#00AED6"/>
<path fill-rule="evenodd" clip-rule="evenodd" d="M9.49891 6.59514C9.45235 5.83007 8.80711 5.24419 8.04215 5.27866H4.25057C4.11088 5.27866 3.9978 5.16838 3.9978 5.03052C3.9978 4.89267 4.11088 4.7755 4.25057 4.7755H8.08871C8.06876 4.25855 7.71621 3.81743 7.21731 3.67958C6.09315 3.47969 4.94902 3.47969 3.83151 3.67958C3.19292 3.83121 2.72064 4.36194 2.62751 5.00985C2.45457 6.18848 2.45457 7.38779 2.62751 8.55953C2.7672 9.24879 3.31266 9.77952 3.9978 9.89669C5.38805 10.0759 6.79159 10.0759 8.18184 9.89669C8.80046 9.77263 9.26609 9.26258 9.33927 8.63535C9.46565 7.96677 9.51887 7.27751 9.49891 6.59514ZM8.24836 7.43604V7.64971C8.24836 7.78756 8.13527 7.90473 8.00224 7.90473C7.86255 7.90473 7.74946 7.78756 7.74946 7.64971V7.43604C7.66964 7.36022 7.62308 7.25683 7.62308 7.15344C7.62308 6.94666 7.79603 6.77435 8.00224 6.77435C8.20845 6.77435 8.37474 6.94666 8.37474 7.15344C8.37474 7.25683 8.32818 7.36022 8.24836 7.43604Z" fill="white"/>
</svg>
