<svg width="44" height="44" viewBox="0 0 44 44" fill="none" xmlns="http://www.w3.org/2000/svg">
<circle cx="22" cy="22" r="22" fill="#F5C400" fill-opacity="0.18"/>
<path d="M22 38C30.8366 38 38 30.8366 38 22C38 13.1634 30.8366 6 22 6C13.1634 6 6 13.1634 6 22C6 30.8366 13.1634 38 22 38Z" fill="#02AFD9"/>
<path fill-rule="evenodd" clip-rule="evenodd" d="M12.7533 25.5894C12.9358 28.2054 14.5784 30.213 17.6203 30.3955C20.5404 30.5171 23.3997 30.5171 26.3199 30.3955C28.9967 30.213 31.0043 28.2054 31.1868 25.5894C31.3085 24.251 31.3693 22.9126 31.3085 21.5742C30.6393 17.924 27.5974 17.8023 27.3541 17.8023H27.2933H17.0727C16.7077 17.8023 16.4035 17.4981 16.4035 17.1331C16.4035 16.7681 16.7077 16.5248 17.0727 16.5248H27.3541C27.2324 14.0913 24.5556 13.6046 23.2781 13.5438H22.6089C20.9663 13.4829 19.2628 13.5438 17.6203 13.6654C14.5176 13.9088 12.9358 15.7947 12.7533 18.4715C12.5708 20.8441 12.5708 23.2168 12.7533 25.5894ZM28.145 24.1902V25.1027C28.145 25.4069 27.9016 25.6502 27.5366 25.6502C27.2324 25.6502 26.9891 25.4069 26.9891 25.1027V24.1902C26.6849 24.0076 26.5024 23.7643 26.5024 23.3993C26.5024 22.9126 26.9891 22.4867 27.5366 22.4867C28.0841 22.4867 28.5708 22.9126 28.5708 23.3993C28.5708 23.7643 28.3883 24.0076 28.145 24.1902Z" fill="#FEFEFE"/>
</svg>
