<svg width="205" height="139" viewBox="0 0 205 139" fill="none" xmlns="http://www.w3.org/2000/svg">
<rect x="150" width="25" height="23.8" rx="4" fill="#D9D9D9"/>
<rect x="180" width="25" height="23.8" rx="4" fill="#D9D9D9"/>
<rect y="28.8" width="25" height="23.8" rx="4" fill="#D9D9D9"/>
<rect x="30" y="28.8" width="25" height="23.8" rx="4" fill="#F5C400"/>
<path fill-rule="evenodd" clip-rule="evenodd" d="M51.986 33.6177C52.1627 33.7825 52.1722 34.0594 52.0073 34.236L39.7573 47.361C39.6764 47.4478 39.5637 47.4979 39.445 47.4999C39.3264 47.502 39.212 47.4558 39.1281 47.3719L33.0031 41.2469C32.8323 41.076 32.8323 40.799 33.0031 40.6281C33.174 40.4573 33.451 40.4573 33.6219 40.6281L39.4266 46.4329L51.3677 33.639C51.5325 33.4623 51.8094 33.4528 51.986 33.6177Z" fill="white" stroke="white" stroke-linecap="round" stroke-linejoin="round"/>
<rect x="60" y="28.8" width="25" height="23.8" rx="4" fill="#D9D9D9"/>
<rect x="90" y="28.8" width="25" height="23.8" rx="4" fill="#D9D9D9"/>
<rect x="120" y="28.8" width="25" height="23.8" rx="4" fill="#D9D9D9"/>
<rect x="150" y="28.8" width="25" height="23.8" rx="4" fill="#D9D9D9"/>
<rect x="180" y="28.8" width="25" height="23.8" rx="4" fill="#D9D9D9"/>
<rect y="57.6" width="25" height="23.8" rx="4" fill="#D9D9D9"/>
<rect x="30" y="57.6" width="25" height="23.8" rx="4" fill="#D9D9D9"/>
<rect x="60" y="57.6" width="25" height="23.8" rx="4" fill="#F5C400"/>
<path fill-rule="evenodd" clip-rule="evenodd" d="M81.986 61.6177C82.1627 61.7825 82.1722 62.0594 82.0073 62.236L69.7573 75.361C69.6764 75.4478 69.5637 75.4979 69.445 75.4999C69.3264 75.502 69.212 75.4558 69.1281 75.3719L63.0031 69.2469C62.8323 69.076 62.8323 68.799 63.0031 68.6281C63.174 68.4573 63.451 68.4573 63.6219 68.6281L69.4266 74.4329L81.3677 61.639C81.5325 61.4623 81.8094 61.4528 81.986 61.6177Z" fill="white" stroke="white" stroke-linecap="round" stroke-linejoin="round"/>
<rect x="90" y="57.6" width="25" height="23.8" rx="4" fill="#D9D9D9"/>
<rect x="120" y="57.6" width="25" height="23.8" rx="4" fill="#D9D9D9"/>
<rect x="150" y="57.6" width="25" height="23.8" rx="4" fill="#D9D9D9"/>
<rect x="180" y="57.6" width="25" height="23.8" rx="4" fill="#D9D9D9"/>
<rect y="86.4" width="25" height="23.8" rx="4" fill="#D9D9D9"/>
<rect x="30" y="86.4" width="25" height="23.8" rx="4" fill="#D9D9D9"/>
<rect x="60" y="86.4" width="25" height="23.8" rx="4" fill="#D9D9D9"/>
<rect x="90" y="86.4" width="25" height="23.8" rx="4" fill="#F5C400"/>
<path fill-rule="evenodd" clip-rule="evenodd" d="M111.986 90.6177C112.163 90.7825 112.172 91.0594 112.007 91.236L99.7573 104.361C99.6764 104.448 99.5637 104.498 99.445 104.5C99.3264 104.502 99.212 104.456 99.1281 104.372L93.0031 98.2469C92.8323 98.076 92.8323 97.799 93.0031 97.6281C93.174 97.4573 93.451 97.4573 93.6219 97.6281L99.4266 103.433L111.368 90.639C111.533 90.4623 111.809 90.4528 111.986 90.6177Z" fill="white" stroke="white" stroke-linecap="round" stroke-linejoin="round"/>
<rect x="120" y="86.4" width="25" height="23.8" rx="4" fill="#D9D9D9"/>
<rect x="150" y="86.4" width="25" height="23.8" rx="4" fill="#D9D9D9"/>
<rect x="180" y="86.4" width="25" height="23.8" rx="4" fill="#D9D9D9"/>
<rect y="115.2" width="25" height="23.8" rx="4" fill="#D9D9D9"/>
<rect x="30" y="115.2" width="25" height="23.8" rx="4" fill="#D9D9D9"/>
<rect x="60" y="115.2" width="25" height="23.8" rx="4" fill="#D9D9D9"/>
<rect x="90" y="115.2" width="25" height="23.8" rx="4" fill="#D9D9D9"/>
<rect x="120" y="115.2" width="25" height="23.8" rx="4" fill="#F5C400"/>
<rect x="150" y="115.2" width="25" height="23.8" rx="4" fill="#F5C400"/>
<rect x="180" y="115.2" width="25" height="23.8" rx="4" fill="#F5C400"/>
<rect x="120" width="25" height="23.8" rx="4" fill="#F5C400"/>
<path fill-rule="evenodd" clip-rule="evenodd" d="M141.986 4.61766C142.163 4.78253 142.172 5.05937 142.007 5.23602L129.757 18.361C129.676 18.4478 129.564 18.4979 129.445 18.4999C129.326 18.502 129.212 18.4558 129.128 18.3719L123.003 12.2469C122.832 12.076 122.832 11.799 123.003 11.6281C123.174 11.4573 123.451 11.4573 123.622 11.6281L129.427 17.4329L141.368 4.63899C141.533 4.46235 141.809 4.4528 141.986 4.61766Z" fill="white" stroke="white" stroke-linecap="round" stroke-linejoin="round"/>
</svg>
