<svg width="55" height="60" viewBox="0 0 55 60" fill="none" xmlns="http://www.w3.org/2000/svg">
<path d="M30.4092 23.3845C33.0286 24.8968 35.2037 27.0719 36.716 29.6913C38.2283 32.3107 39.0244 35.282 39.0244 38.3066C39.0244 41.3312 38.2282 44.3025 36.7159 46.9219C35.2036 49.5413 33.0284 51.7164 30.409 53.2287C27.7897 54.7409 24.8184 55.5371 21.7938 55.537C18.7692 55.537 15.7979 54.7407 13.1786 53.2284C10.5593 51.716 8.38419 49.5408 6.87196 46.9214C5.35973 44.302 4.56364 41.3307 4.56372 38.3061L4.57234 37.7478C4.66883 34.7721 5.53473 31.8722 7.08562 29.3307C8.63651 26.7893 10.8195 24.6931 13.4217 23.2464C16.0238 21.7998 18.9565 21.0522 21.9336 21.0764C24.9108 21.1005 27.8309 21.8958 30.4092 23.3845ZM21.7941 27.9678C21.3371 27.9678 20.8988 28.1493 20.5757 28.4725C20.2526 28.7956 20.071 29.2339 20.071 29.6908C18.7001 29.6908 17.3853 30.2354 16.4159 31.2048C15.4465 32.1743 14.9019 33.489 14.9019 34.86C14.9019 36.2309 15.4465 37.5457 16.4159 38.5151C17.3853 39.4845 18.7001 40.0291 20.071 40.0291V43.4752C19.7853 43.4911 19.5 43.4369 19.2399 43.3173C18.9799 43.1978 18.753 43.0166 18.5789 42.7895L18.4617 42.6154C18.226 42.2352 17.8516 41.9616 17.4178 41.8525C16.984 41.7433 16.5247 41.8072 16.1371 42.0305C15.7495 42.2538 15.464 42.6192 15.3409 43.0492C15.2177 43.4793 15.2667 43.9404 15.4774 44.335C15.9172 45.0978 16.5445 45.7355 17.2999 46.1878C18.0552 46.6402 18.9136 46.892 19.7936 46.9196H20.071C20.0707 47.3419 20.2254 47.7497 20.5059 48.0654C20.7864 48.3812 21.173 48.5829 21.5925 48.6323L21.7941 48.6444C22.251 48.6444 22.6893 48.4628 23.0124 48.1397C23.3356 47.8166 23.5171 47.3783 23.5171 46.9213L23.8204 46.9127C25.1636 46.8351 26.4237 46.2367 27.3328 45.2447C28.2419 44.2528 28.7284 42.9454 28.689 41.6005C28.6495 40.2555 28.0871 38.979 27.1214 38.0421C26.1556 37.1052 24.8626 36.5817 23.5171 36.583V33.1369C24.1339 33.1163 24.6733 33.3782 25.0092 33.8227L25.1264 33.9967C25.3622 34.3769 25.7365 34.6505 26.1703 34.7597C26.6042 34.8688 27.0634 34.805 27.451 34.5817C27.8386 34.3583 28.1242 33.993 28.2473 33.5629C28.3704 33.1328 28.3214 32.6718 28.1107 32.2771C27.6711 31.5141 27.0439 30.876 26.2885 30.4234C25.5332 29.9707 24.6747 29.7186 23.7945 29.6908H23.5171C23.5171 29.2339 23.3356 28.7956 23.0124 28.4725C22.6893 28.1493 22.251 27.9678 21.7941 27.9678ZM23.5171 40.0291C23.9741 40.0291 24.4123 40.2107 24.7355 40.5338C25.0586 40.8569 25.2401 41.2952 25.2401 41.7522C25.2401 42.2092 25.0586 42.6474 24.7355 42.9706C24.4123 43.2937 23.9741 43.4752 23.5171 43.4752V40.0291ZM20.071 33.1369V36.583C19.6141 36.583 19.1758 36.4015 18.8527 36.0784C18.5295 35.7552 18.348 35.317 18.348 34.86C18.348 34.403 18.5295 33.9647 18.8527 33.6416C19.1758 33.3185 19.6141 33.1369 20.071 33.1369Z" fill="#F5C400"/>
<g clip-path="url(#clip0_327_9255)">
<path d="M31.2218 4.53303C33.3028 4.46758 35.3444 5.11081 37.0121 6.35735L50.182 16.2017C51.5729 17.2437 50.8758 19.4562 49.1388 19.5127L32.7045 20.0299C30.6234 20.0954 28.5818 19.4521 26.9141 18.2056L17.3689 11.0661C16.8821 11.234 16.4581 11.5463 16.1534 11.9613C16.354 12.2199 16.4895 12.523 16.5485 12.8449C16.6075 13.1669 16.5883 13.4983 16.4924 13.8112C16.3966 14.1242 16.2269 14.4095 15.9977 14.6431C15.7685 14.8768 15.4864 15.0519 15.1754 15.1537L15.1721 15.1913L14.4593 23.4C14.4434 23.5826 14.3867 23.7594 14.2934 23.9172C14.2001 24.075 14.0727 24.2099 13.9203 24.3119C13.768 24.4138 13.5947 24.4804 13.4133 24.5065C13.2318 24.5326 13.0469 24.5177 12.8719 24.4628L9.46162 23.3884C9.28659 23.3333 9.12616 23.2396 8.99218 23.1143C8.8582 22.9889 8.75409 22.835 8.68753 22.664C8.62098 22.493 8.59368 22.3093 8.60765 22.1263C8.62162 21.9434 8.6765 21.7659 8.76825 21.607L12.8901 14.4701L12.9103 14.4401C12.6988 14.1591 12.5635 13.8283 12.5174 13.4797C12.4713 13.131 12.5161 12.7764 12.6473 12.4502C12.7785 12.1239 12.9918 11.837 13.2664 11.6174C13.541 11.3978 13.8677 11.2527 14.2148 11.1964C14.5559 10.6143 15.0159 10.1107 15.5647 9.71839L13.7449 8.35929C12.352 7.31669 13.0491 5.10415 14.7881 5.04827L31.2218 4.53303Z" fill="#102A71"/>
<path d="M19.3052 14.3524L17.03 19.3178C16.6417 20.1632 16.7128 21.1876 17.3089 21.9663C19.0622 24.2636 22.1188 27.3783 26.7483 28.8369C30.5935 30.0615 34.7349 29.9864 38.5332 28.6233C39.4159 28.3019 39.9959 27.5276 40.1555 26.668L41.1486 21.2323L32.2376 21.5121C30.1565 21.5775 28.1149 20.9343 26.4472 19.6878L19.3052 14.3524Z" fill="#102A71"/>
</g>
<defs>
<clipPath id="clip0_327_9255">
<rect width="43.4591" height="39.7383" fill="white" transform="matrix(0.962358 0.271787 -0.33159 0.943424 13.1766 -4.95911e-05)"/>
</clipPath>
</defs>
</svg>
