<svg width="44" height="44" viewBox="0 0 44 44" fill="none" xmlns="http://www.w3.org/2000/svg">
<circle cx="22" cy="22" r="22" fill="#F5C400" fill-opacity="0.18"/>
<mask id="mask0_381_767" style="mask-type:luminance" maskUnits="userSpaceOnUse" x="3" y="16" width="38" height="12">
<path fill-rule="evenodd" clip-rule="evenodd" d="M3.92847 27.6013H40.7804V16.5H3.92847V27.6013Z" fill="white"/>
</mask>
<g mask="url(#mask0_381_767)">
<path d="M3.96769 24.2421C3.96769 23.7086 3.95753 23.261 3.92871 22.8616H4.93931L4.9867 23.5471H5.0149C5.24346 23.1848 5.66318 22.7562 6.44454 22.7562C7.05444 22.7562 7.53073 23.1003 7.7307 23.6138H7.75019C7.91293 23.3564 8.10318 23.1668 8.3218 23.0331C8.57901 22.8523 8.87475 22.7562 9.25656 22.7562C10.0275 22.7562 10.8082 23.28 10.8082 24.766V27.4973H9.66498V24.9365C9.66498 24.1657 9.39851 23.7086 8.83707 23.7086C8.43599 23.7086 8.14002 23.9945 8.01696 24.3279C7.98837 24.4419 7.95955 24.5845 7.95955 24.7172V27.4973H6.81572V24.8129C6.81572 24.1657 6.55874 23.7086 6.01572 23.7086C5.57719 23.7086 5.28229 24.0512 5.17741 24.3744C5.12995 24.4895 5.10977 24.6224 5.10977 24.7558V27.4973H3.96769V24.2421Z" fill="#003A70"/>
<path d="M14.1198 25.2318C13.2906 25.2123 12.5001 25.3926 12.5001 26.0976C12.5001 26.5539 12.7956 26.764 13.1673 26.764C13.6333 26.764 13.9772 26.4595 14.081 26.1264C14.1098 26.0409 14.1198 25.9452 14.1198 25.8695V25.2318ZM15.263 26.3833C15.263 26.802 15.2823 27.2097 15.3303 27.4968H14.2724L14.1963 26.9825H14.1666C13.8812 27.3444 13.3955 27.6011 12.7956 27.6011C11.8613 27.6011 11.3376 26.9266 11.3376 26.2207C11.3376 25.05 12.3755 24.4603 14.091 24.4697V24.3935C14.091 24.0887 13.9668 23.5842 13.1482 23.5842C12.6904 23.5842 12.2133 23.7277 11.8995 23.9274L11.6705 23.1662C12.0134 22.9561 12.6143 22.7556 13.348 22.7556C14.8346 22.7556 15.263 23.6989 15.263 24.7075V26.3833Z" fill="#003A70"/>
<path d="M16.0733 24.2421C16.0733 23.7086 16.0627 23.261 16.0349 22.8616H17.0631L17.1205 23.5564H17.1486C17.3487 23.1954 17.8544 22.7562 18.6255 22.7562C19.4364 22.7562 20.2747 23.28 20.2747 24.746V27.4973H19.1022V24.8798C19.1022 24.2133 18.8544 23.7086 18.2162 23.7086C17.7493 23.7086 17.426 24.0412 17.3014 24.3939C17.2641 24.4991 17.254 24.6421 17.254 24.774V27.4973H16.0733V24.2421Z" fill="#003A70"/>
<path d="M24.1829 24.7934C24.1829 24.6988 24.1731 24.5846 24.1545 24.4893C24.0494 24.0324 23.6783 23.6614 23.1444 23.6614C22.3916 23.6614 21.9726 24.3281 21.9726 25.1941C21.9726 26.0413 22.3916 26.6607 23.1352 26.6607C23.6111 26.6607 24.0308 26.3367 24.1448 25.8321C24.1731 25.7272 24.1829 25.6121 24.1829 25.4884V24.7934ZM25.3547 20.9991V26.193C25.3547 26.6687 25.3742 27.1832 25.3928 27.4969H24.3447L24.2979 26.7646H24.2784C24.0022 27.2778 23.4386 27.6017 22.7631 27.6017C21.658 27.6017 20.7811 26.6607 20.7811 25.2324C20.7717 23.6802 21.744 22.7562 22.8588 22.7562C23.4967 22.7562 23.9545 23.023 24.1639 23.367H24.1829V20.9991H25.3547Z" fill="#003A70"/>
<path d="M26.1846 27.4966H27.3678V22.8613H26.1846V27.4966Z" fill="#003A70"/>
<path d="M28.1949 24.3559C28.1949 23.7277 28.1853 23.2797 28.1565 22.8615H29.1764L29.2141 23.7459H29.2529C29.4813 23.0892 30.0247 22.8615 30.5202 22.8615C30.6344 22.8615 30.7011 22.8418 30.7965 22.8615V23.8898C30.7011 23.8704 30.5965 23.8513 30.4529 23.8513C29.8912 23.8513 29.5101 24.2128 29.4057 24.7361C29.3866 24.8407 29.3677 24.9654 29.3677 25.0991V27.4966H28.1949V24.3559Z" fill="#003A70"/>
<path d="M31.3396 27.4966H32.5205V22.8613H31.3396V27.4966Z" fill="#003A70"/>
<path fill-rule="evenodd" clip-rule="evenodd" d="M39.8122 17.9645C39.2292 17.3011 38.6103 17.6007 38.1163 17.8452C37.9094 17.9474 37.1581 18.4469 36.4137 18.7952C35.8832 19.0435 35.1218 18.9684 34.7043 18.4533C34.6789 18.422 34.004 17.6052 33.9325 17.5045C33.4942 16.9554 32.3854 16.5 31.0607 17.2573C30.3508 17.6678 28.6781 18.6266 28.0527 18.9834C27.6727 19.1771 26.7904 19.2617 26.2921 18.5892C26.2838 18.5781 25.629 17.7619 25.6028 17.7305C25.5835 17.7085 25.1605 17.0818 24.2178 17.0626C24.0792 17.0591 23.3866 17.055 22.7099 17.4388C21.8127 17.9515 19.7244 19.1442 19.7244 19.1442C19.7228 19.1442 19.7228 19.1452 19.7228 19.1452C18.8644 19.6362 18.1948 20.0173 18.1948 20.0173L18.9853 20.9879C19.3553 21.4461 20.1887 21.8013 20.912 21.3866C20.912 21.3866 23.5836 19.8411 23.5929 19.8368C24.7487 19.2033 25.6405 19.2033 26.2314 19.4392C26.7628 19.6628 27.2248 20.2212 27.2248 20.2212C27.2248 20.2212 27.8292 20.9693 27.9353 21.1C28.2789 21.5225 28.8473 21.3568 28.8473 21.3568C28.8473 21.3568 29.0573 21.3325 29.3762 21.1442C29.3762 21.1442 31.9633 19.6457 31.9649 19.6452C32.7869 19.1636 33.541 19.0738 33.9255 19.1089C35.1318 19.2186 35.5069 20.0604 36.0303 20.6474C36.3382 20.9935 36.6158 21.1892 37.0407 21.1792C37.3205 21.173 37.6357 21.0044 37.6823 20.974L40.7808 19.1872C40.7808 19.1872 40.4633 18.7093 39.8122 17.9645Z" fill="#FFB700"/>
</g>
</svg>
