<svg width="44" height="44" viewBox="0 0 44 44" fill="none" xmlns="http://www.w3.org/2000/svg">
<circle cx="22" cy="22" r="22" fill="#F5C400" fill-opacity="0.18"/>
<path d="M10.2751 14.0932H16.1904C16.3711 12.1069 16.9288 10.3231 17.7301 8.9444C18.7906 7.12168 20.2988 6 22.0035 6C23.7082 6 25.2086 7.12947 26.2769 8.9444C27.0782 10.3153 27.636 12.1069 27.8166 14.0932H33.724C34.4232 14.0932 35.0516 14.6618 34.9966 15.3551L33.8104 31.7674C33.6612 33.8238 32.3572 35 30.464 35H13.543C11.4378 35 10.3223 33.5434 10.1966 31.7674L9.00252 15.3629C8.95539 14.6696 9.57598 14.0932 10.2751 14.0932ZM17.6672 14.0932H26.3241C26.1513 12.3717 25.6721 10.845 24.9886 9.6766C24.2031 8.31346 23.1347 7.46441 22.0035 7.46441C20.8644 7.46441 19.8039 8.31346 19.0027 9.68439C18.3192 10.845 17.8479 12.3795 17.6672 14.0932Z" fill="#EA501F"/>
<path d="M17.288 29.1317C16.9866 28.9376 16.9091 28.5575 17.1158 28.2744C17.3225 27.9913 17.7272 27.9185 18.0286 28.1126C18.218 28.234 18.4161 28.3553 18.6313 28.4766C20.1468 29.342 21.5418 29.7707 22.7043 29.7707C23.7548 29.7707 24.6073 29.3986 25.1498 28.6464C25.1842 28.5898 25.2187 28.5575 25.2273 28.5332C25.3823 28.2987 25.4942 28.0479 25.5717 27.8053C25.7267 27.3039 25.7009 26.7862 25.4856 26.3172C25.2531 25.8238 24.8054 25.3466 24.1079 24.9503C23.6429 24.6834 23.066 24.4489 22.3685 24.2709C20.5946 23.8018 19.2858 23.1386 18.5797 22.249C17.8047 21.2704 17.7444 20.0895 18.5711 18.658C19.1221 17.7117 20.2502 17.1213 21.6796 17.0162C22.911 16.9272 24.392 17.2022 25.8989 17.922C26.2262 18.0757 26.3553 18.4477 26.1831 18.755C26.0109 19.0624 25.6234 19.1837 25.2962 19.0219C24.0132 18.4073 22.7904 18.1727 21.7743 18.2455C20.8013 18.3183 20.0607 18.6742 19.7335 19.2403C19.1824 20.1866 19.191 20.9307 19.6388 21.4968C20.1555 22.1519 21.2318 22.6615 22.7301 23.0578C23.5396 23.2761 24.2284 23.5511 24.7967 23.8746C25.7353 24.4084 26.3639 25.0797 26.6998 25.8076C27.0442 26.5598 27.0873 27.3524 26.8548 28.1288C26.7514 28.4766 26.5878 28.8244 26.3639 29.1641C26.3123 29.2369 26.2778 29.2935 26.252 29.3339C25.4512 30.4419 24.2198 30.9919 22.7215 31C21.3179 31 19.6819 30.5147 17.9597 29.528C17.7444 29.4148 17.5205 29.2854 17.288 29.1317Z" fill="white"/>
</svg>
