<svg width="24" height="24" viewBox="0 0 24 24" fill="none" xmlns="http://www.w3.org/2000/svg">
<path fill-rule="evenodd" clip-rule="evenodd" d="M1.99266 12C2.00278 12.0155 2.01346 12.0318 2.02471 12.0489C2.13847 12.2214 2.30958 12.47 2.53602 12.7692C2.98943 13.3685 3.6618 14.1673 4.53643 14.9649C6.29104 16.5651 8.81865 18.125 12.0001 18.125C15.1814 18.125 17.7091 16.5651 19.4637 14.9649C20.3383 14.1673 21.0107 13.3685 21.4641 12.7692C21.6905 12.47 21.8616 12.2214 21.9754 12.0489C21.9866 12.0318 21.9973 12.0155 22.0074 12C21.9973 11.9845 21.9866 11.9682 21.9754 11.9511C21.8616 11.7786 21.6905 11.53 21.4641 11.2308C21.0107 10.6315 20.3383 9.83272 19.4637 9.03508C17.7091 7.43491 15.1814 5.875 12.0001 5.875C8.81865 5.875 6.29104 7.43491 4.53643 9.03508C3.6618 9.83272 2.98943 10.6315 2.53602 11.2308C2.30958 11.53 2.13847 11.7786 2.02471 11.9511C2.01346 11.9682 2.00278 11.9845 1.99266 12ZM22.5418 12C22.9417 11.7862 22.9416 11.7861 22.9415 11.7859L22.9403 11.7839L22.9375 11.7792L22.9277 11.7629C22.9193 11.7489 22.9071 11.7289 22.8912 11.7033C22.8594 11.652 22.8126 11.5782 22.7511 11.4849C22.6282 11.2985 22.4463 11.0344 22.2072 10.7185C21.7296 10.0872 21.0213 9.2454 20.0969 8.40242C18.2536 6.72134 15.5104 5 12.0001 5C8.48975 5 5.74651 6.72134 3.90319 8.40242C2.97885 9.2454 2.27048 10.0872 1.7929 10.7185C1.55384 11.0344 1.37189 11.2985 1.24896 11.4849C1.18748 11.5782 1.1407 11.652 1.10888 11.7033C1.09297 11.7289 1.08079 11.7489 1.07237 11.7629L1.06257 11.7792L1.05979 11.7839L1.05894 11.7854C1.05883 11.7856 1.05844 11.7862 1.45834 12L1.05844 11.7862C0.980522 11.919 0.980522 12.081 1.05844 12.2138L1.45834 12C1.05844 12.2138 1.05832 12.2136 1.05844 12.2138L1.05894 12.2146L1.05979 12.2161L1.06257 12.2208L1.07237 12.2371C1.08079 12.2511 1.09297 12.2711 1.10888 12.2967C1.1407 12.348 1.18748 12.4218 1.24896 12.5151C1.37189 12.7015 1.55384 12.9656 1.7929 13.2815C2.27048 13.9128 2.97885 14.7546 3.90319 15.5976C5.74651 17.2787 8.48975 19 12.0001 19C15.5104 19 18.2536 17.2787 20.0969 15.5976C21.0213 14.7546 21.7296 13.9128 22.2072 13.2815C22.4463 12.9656 22.6282 12.7015 22.7511 12.5151C22.8126 12.4218 22.8594 12.348 22.8912 12.2967C22.9071 12.2711 22.9193 12.2511 22.9277 12.2371L22.9375 12.2208L22.9403 12.2161L22.9412 12.2146C22.9413 12.2144 22.9417 12.2138 22.5418 12ZM22.5418 12L22.9417 12.2138C23.0196 12.081 23.0194 11.9187 22.9415 11.7859L22.5418 12Z" fill="#00081C"/>
<path d="M22.5418 12C22.9417 11.7862 22.9416 11.7861 22.9415 11.7859M22.5418 12C22.9417 12.2138 22.9413 12.2144 22.9412 12.2146L22.9403 12.2161L22.9375 12.2208L22.9277 12.2371C22.9193 12.2511 22.9071 12.2711 22.8912 12.2967C22.8594 12.348 22.8126 12.4218 22.7511 12.5151C22.6282 12.7015 22.4463 12.9656 22.2072 13.2815C21.7296 13.9128 21.0213 14.7546 20.0969 15.5976C18.2536 17.2787 15.5104 19 12.0001 19C8.48975 19 5.74651 17.2787 3.90319 15.5976C2.97885 14.7546 2.27048 13.9128 1.7929 13.2815C1.55384 12.9656 1.37189 12.7015 1.24896 12.5151C1.18748 12.4218 1.1407 12.348 1.10888 12.2967C1.09297 12.2711 1.08079 12.2511 1.07237 12.2371L1.06257 12.2208L1.05979 12.2161L1.05894 12.2146L1.05844 12.2138M22.5418 12L22.9417 12.2138C23.0196 12.081 23.0194 11.9187 22.9415 11.7859M22.5418 12L22.9415 11.7859M22.9415 11.7859L22.9403 11.7839L22.9375 11.7792L22.9277 11.7629C22.9193 11.7489 22.9071 11.7289 22.8912 11.7033C22.8594 11.652 22.8126 11.5782 22.7511 11.4849C22.6282 11.2985 22.4463 11.0344 22.2072 10.7185C21.7296 10.0872 21.0213 9.2454 20.0969 8.40242C18.2536 6.72134 15.5104 5 12.0001 5C8.48975 5 5.74651 6.72134 3.90319 8.40242C2.97885 9.2454 2.27048 10.0872 1.7929 10.7185C1.55384 11.0344 1.37189 11.2985 1.24896 11.4849C1.18748 11.5782 1.1407 11.652 1.10888 11.7033C1.09297 11.7289 1.08079 11.7489 1.07237 11.7629L1.06257 11.7792L1.05979 11.7839L1.05894 11.7854C1.05883 11.7856 1.05844 11.7862 1.45834 12M1.45834 12L1.05844 11.7862C0.980522 11.919 0.980522 12.081 1.05844 12.2138M1.45834 12L1.05844 12.2138M1.45834 12C1.05844 12.2138 1.05832 12.2136 1.05844 12.2138M2.02471 12.0489C2.01346 12.0318 2.00278 12.0155 1.99266 12C2.00278 11.9845 2.01346 11.9682 2.02471 11.9511C2.13847 11.7786 2.30958 11.53 2.53602 11.2308C2.98943 10.6315 3.6618 9.83272 4.53643 9.03508C6.29104 7.43491 8.81865 5.875 12.0001 5.875C15.1814 5.875 17.7091 7.43491 19.4637 9.03508C20.3383 9.83272 21.0107 10.6315 21.4641 11.2308C21.6905 11.53 21.8616 11.7786 21.9754 11.9511C21.9866 11.9682 21.9973 11.9845 22.0074 12C21.9973 12.0155 21.9866 12.0318 21.9754 12.0489C21.8616 12.2214 21.6905 12.47 21.4641 12.7692C21.0107 13.3685 20.3383 14.1673 19.4637 14.9649C17.7091 16.5651 15.1814 18.125 12.0001 18.125C8.81865 18.125 6.29104 16.5651 4.53643 14.9649C3.6618 14.1673 2.98943 13.3685 2.53602 12.7692C2.30958 12.47 2.13847 12.2214 2.02471 12.0489Z" stroke="#00081C" stroke-linecap="round" stroke-linejoin="round"/>
<path fill-rule="evenodd" clip-rule="evenodd" d="M12 10C10.8954 10 10 10.8954 10 12C10 13.1046 10.8954 14 12 14C13.1046 14 14 13.1046 14 12C14 10.8954 13.1046 10 12 10ZM9 12C9 10.3431 10.3431 9 12 9C13.6569 9 15 10.3431 15 12C15 13.6569 13.6569 15 12 15C10.3431 15 9 13.6569 9 12Z" fill="#00081C" stroke="#00081C" stroke-linecap="round" stroke-linejoin="round"/>
</svg>
