<svg width="13" height="14" viewBox="0 0 13 14" fill="none" xmlns="http://www.w3.org/2000/svg">
<path d="M6.11273 10.423C6.11273 9.90489 6.11835 8.51997 6.10558 8.34934C6.11672 6.28853 4.61816 4.83482 3.67144 4.94815C3.01634 5.00499 2.46732 5.27208 2.17253 6.04043C1.89931 6.7565 2.14358 7.70897 3.05197 7.93246C4.02331 8.17249 4.5905 8.37219 5.00097 8.65393C5.50393 8.99884 5.91453 9.65784 5.92543 10.4238" fill="#0060AF"/>
<path d="M6.50047 13.5555C4.78777 13.5555 3.02759 13.1338 1.26976 12.2995L1.22663 12.2783L1.206 12.2344C0.417159 10.5695 0 8.74846 0 6.96683C0 5.18789 0.400045 3.44481 1.18947 1.78213L1.21115 1.73795L1.25511 1.71591C2.88119 0.945692 4.63047 0.555542 6.45593 0.555542C8.15644 0.555542 9.97253 0.989875 11.707 1.81377L11.7516 1.83358L11.7721 1.87858C12.576 3.57419 13 5.39474 13 7.14684C13 8.89215 12.5929 10.6367 11.788 12.3313L11.7668 12.3758L11.722 12.3965C10.1208 13.1544 8.31503 13.5555 6.50047 13.5555ZM1.43245 12.0712C3.14011 12.8744 4.84321 13.28 6.50047 13.28C8.25771 13.28 10.0053 12.896 11.561 12.1679C12.3338 10.5259 12.7255 8.83589 12.7255 7.14684C12.7255 5.45099 12.3167 3.68694 11.5433 2.04125C9.86 1.25005 8.10206 0.830487 6.45593 0.830487C4.6886 0.830487 2.99465 1.20528 1.41768 1.94468C0.660725 3.55626 0.275449 5.24496 0.275449 6.96683C0.275449 8.69197 0.675845 10.4567 1.43245 12.0712Z" fill="#0060AF"/>
<path d="M5.70676 10.4238C5.70993 9.75969 5.33918 9.17242 4.85463 8.8568C4.42481 8.57787 3.84778 8.39457 2.91688 8.15854C2.62912 8.08494 2.32812 7.92145 2.23494 7.71307C1.98844 7.96141 1.94366 8.51974 1.98703 8.84602C2.03743 9.22363 2.47874 9.84595 3.14321 9.87033C3.549 9.88661 4.06204 9.78301 4.30807 9.73075C4.73249 9.63909 5.404 9.9049 5.5109 10.423" fill="#0060AF"/>
<path d="M6.45609 1.73633C5.32945 1.73633 4.35623 2.47924 4.35975 3.76478C4.36327 4.84581 5.23275 5.42453 5.54301 5.83789C6.01186 6.46079 6.26562 7.19807 6.29199 8.32622C6.3125 9.22407 6.31145 10.1107 6.31602 10.4249H6.56475C6.56041 10.0961 6.54916 9.15492 6.56204 8.29844C6.57892 7.16995 6.84183 6.46079 7.31091 5.83789C7.62387 5.42453 8.49265 4.84581 8.49452 3.76478C8.49874 2.47924 7.52611 1.73633 6.40041 1.73633" fill="#0060AF"/>
<path d="M6.74173 10.423C6.74173 9.90489 6.73586 8.51997 6.74841 8.34934C6.73739 6.28853 8.23501 4.83482 9.18255 4.94815C9.83765 5.00499 10.3861 5.27208 10.6817 6.04043C10.9547 6.7565 10.709 7.70897 9.80167 7.93246C8.82986 8.17249 8.26337 8.37219 7.85184 8.65393C7.34947 8.99884 6.96759 9.65784 6.95587 10.4238" fill="#0060AF"/>
<path d="M7.14761 10.4238C7.14409 9.75969 7.51472 9.17242 7.99786 8.8568C8.42944 8.57787 9.00718 8.39457 9.93726 8.15854C10.2256 8.08494 10.5262 7.92145 10.6178 7.71307C10.8655 7.96141 10.9101 8.51974 10.8667 8.84602C10.8153 9.22363 10.3752 9.84595 9.71186 9.87033C9.30619 9.88661 8.79045 9.78301 8.54548 9.73075C8.1227 9.63909 7.44931 9.9049 7.34195 10.423" fill="#0060AF"/>
<path d="M7.49524 12.5679L7.35107 11.5161L7.69908 11.4634C7.78382 11.4518 7.88697 11.4665 7.92823 11.5196C7.97382 11.5751 7.98777 11.6209 7.99656 11.6935C8.00969 11.7834 7.98367 11.8874 7.8824 11.9392V11.9423C7.99551 11.9423 8.06384 12.0236 8.08365 12.1607C8.08658 12.1896 8.09514 12.2596 8.08658 12.318C8.0636 12.4568 7.98074 12.5015 7.8409 12.5211L7.49524 12.5679ZM7.71924 12.3796C7.7605 12.3737 7.80234 12.3715 7.83504 12.3507C7.88509 12.318 7.88052 12.248 7.87361 12.1961C7.85614 12.0819 7.82637 12.0386 7.70529 12.0565L7.62922 12.0682L7.67739 12.3855L7.71924 12.3796ZM7.64633 11.8936C7.6924 11.8861 7.75487 11.8806 7.78089 11.8369C7.79449 11.8077 7.81195 11.7845 7.80047 11.7196C7.78628 11.6426 7.76073 11.5949 7.66298 11.6134L7.5719 11.628L7.60777 11.8976" fill="#0060AF"/>
<path d="M9.00267 11.9353C9.00537 11.9549 9.00854 11.9767 9.00971 11.9962C9.03784 12.1881 9.00267 12.3469 8.787 12.3906C8.46819 12.452 8.40712 12.2539 8.35097 11.9767L8.32108 11.8266C8.27713 11.5613 8.25826 11.3604 8.56911 11.2986C8.74434 11.2666 8.86014 11.3363 8.90832 11.5107C8.91582 11.5367 8.9252 11.5625 8.92871 11.5886L8.73801 11.628C8.71597 11.5625 8.68679 11.4454 8.60099 11.4552C8.44697 11.4738 8.49784 11.6654 8.51366 11.7454L8.57098 12.0334C8.58821 12.1205 8.62244 12.2596 8.75571 12.2327C8.86389 12.211 8.81678 12.0425 8.80716 11.9735" fill="#0060AF"/>
<path d="M9.30854 12.2536L9.24255 11.1651L9.49878 11.0869L10.036 12.0336L9.83424 12.094L9.70695 11.8534L9.48296 11.9207L9.51191 12.1942L9.30854 12.2536ZM9.4642 11.7449L9.62607 11.698L9.4111 11.2576" fill="#0060AF"/>
<path d="M2.98011 11.4307C3.06028 11.174 3.13213 10.9851 3.43805 11.069C3.6018 11.1147 3.70331 11.1869 3.6985 11.3771C3.69771 11.4194 3.68373 11.4625 3.67459 11.5044L3.48412 11.4518C3.50909 11.3468 3.52491 11.2634 3.39551 11.2236C3.24594 11.1826 3.20949 11.3639 3.18886 11.4422L3.11139 11.7275C3.08677 11.8123 3.05723 11.9523 3.18886 11.9884C3.29763 12.0177 3.36363 11.911 3.40301 11.7551L3.26974 11.7198L3.3158 11.5547L3.62911 11.6555L3.48037 12.2055L3.3362 12.1663L3.36867 12.0501H3.36456C3.29822 12.1451 3.21723 12.1551 3.14631 12.1415C2.833 12.0567 2.86571 11.852 2.94049 11.5785" fill="#0060AF"/>
<path d="M4.14634 11.8952L4.05199 12.3427L3.8396 12.2967L4.06594 11.2519L4.428 11.3337C4.63992 11.3794 4.70392 11.4737 4.67392 11.668C4.6568 11.7794 4.60183 11.8995 4.46762 11.8898L4.46622 11.888C4.57968 11.9277 4.58929 11.9849 4.56948 12.0838C4.56093 12.1259 4.50197 12.3813 4.54264 12.4225L4.54404 12.4538L4.32427 12.3965C4.31513 12.3257 4.34619 12.1984 4.3585 12.128C4.37092 12.0657 4.39073 11.9778 4.32744 11.9447C4.27785 11.9183 4.25945 11.9196 4.20343 11.9067L4.14634 11.8952ZM4.18256 11.7333L4.32556 11.7719C4.41241 11.7844 4.46071 11.7394 4.47782 11.6345C4.49329 11.5383 4.47325 11.5007 4.3953 11.4821L4.24199 11.451" fill="#0060AF"/>
<path d="M5.50864 11.4854L5.71869 11.5098L5.6282 12.2443C5.58425 12.4771 5.49423 12.579 5.238 12.5471C4.97732 12.5142 4.91543 12.3955 4.93126 12.1607L5.02233 11.4268L5.23402 11.4511L5.14318 12.1686C5.13357 12.2465 5.11551 12.3619 5.25418 12.3759C5.37713 12.3853 5.40503 12.3038 5.41886 12.2025" fill="#0060AF"/>
<path d="M5.95032 12.5872L6.01349 11.5369L6.41706 11.5544C6.60776 11.5638 6.65769 11.7195 6.65171 11.8681C6.6462 11.9585 6.61796 12.0594 6.53919 12.1141C6.47461 12.1607 6.39162 12.1717 6.31461 12.1679L6.1831 12.1606L6.15685 12.6008L5.95032 12.5872ZM6.18908 12.0004L6.29598 12.0064C6.38283 12.0096 6.44038 11.9752 6.44788 11.8477C6.4521 11.7253 6.4058 11.7045 6.29328 11.6996L6.20854 11.6967" fill="#0060AF"/>
</svg>
