<svg width="13" height="14" viewBox="0 0 13 14" fill="none" xmlns="http://www.w3.org/2000/svg">
<path fill-rule="evenodd" clip-rule="evenodd" d="M0 5.64386L3.92428 10.62L0 13.8889V5.64386Z" fill="#F15A23"/>
<path fill-rule="evenodd" clip-rule="evenodd" d="M1.57947 13.8889L4.53229 11.4058L6.57321 13.8889H1.57947Z" fill="#F15A23"/>
<path fill-rule="evenodd" clip-rule="evenodd" d="M0 2.98114L1.02409 4.28334L5.23476 9.5724L6.59918 8.48022C6.59918 8.48022 5.46647 7.13971 4.70591 5.64384C3.21891 2.71924 4.27167 0.898376 4.27167 0.898376H0V2.98114Z" fill="#F15A23"/>
<path fill-rule="evenodd" clip-rule="evenodd" d="M5.83508 10.3889L7.22465 9.23517C7.22465 9.23517 8.55178 10.9913 10.0906 11.4058C12.1072 11.9489 13 10.62 13 10.62V13.8889H8.57079L9.56954 13.0208C9.56954 13.0208 9.04845 13.37 7.77403 12.4827C7.02185 11.959 5.83508 10.3889 5.83508 10.3889Z" fill="#F15A23"/>
<path fill-rule="evenodd" clip-rule="evenodd" d="M5.96255 0.888885C5.96255 0.888885 5.51926 1.49592 5.8348 2.98117C6.17208 4.56871 7.51341 6.24895 7.51029 6.21133C7.51029 6.21133 7.59652 4.54293 8.57051 3.56386C10.6466 1.47696 12.9997 2.71927 12.9997 2.71927V0.89841L5.96255 0.888885Z" fill="#F15A23"/>
<path fill-rule="evenodd" clip-rule="evenodd" d="M12.9998 4.91925C12.9998 4.91925 11.6869 3.78882 10.5455 3.78882C9.08534 3.78882 8.28833 5.056 8.28833 5.97521C8.28833 7.3141 8.92765 8.05806 9.56933 8.7031C10.4915 9.63006 11.6133 10.6298 12.9998 9.82516C12.9998 8.30223 12.9998 4.91925 12.9998 4.91925Z" fill="#F15A23"/>
</svg>
